<svg xmlns="http://www.w3.org/2000/svg" viewBox="0 0 280 48" fill="none">
  <!-- Octagonal mark -->
  <g transform="translate(4,4)" stroke="#00CC88" stroke-width="1.8" fill="none">
    <polygon points="20,0 40,0 52,12 52,28 40,40 20,40 8,28 8,12"/>
    <polygon points="24,6 36,6 44,14 44,26 36,34 24,34 16,26 16,14"/>
    <line x1="20" y1="0" x2="24" y2="6"/>
    <line x1="40" y1="0" x2="36" y2="6"/>
    <line x1="52" y1="12" x2="44" y2="14"/>
    <line x1="52" y1="28" x2="44" y2="26"/>
    <line x1="40" y1="40" x2="36" y2="34"/>
    <line x1="20" y1="40" x2="24" y2="34"/>
    <line x1="8" y1="28" x2="16" y2="26"/>
    <line x1="8" y1="12" x2="16" y2="14"/>
    <circle cx="30" cy="20" r="4" stroke="#00CC88" stroke-width="1.5"/>
  </g>
  <!-- Wordmark -->
  <text x="72" y="34" font-family="Inter, system-ui, -apple-system, sans-serif" font-size="28" font-weight="700" letter-spacing="3" fill="#e0e0e0">OPSEEQ</text>
</svg>
